# xmcd
#
# Track frame offsets:
#	150
#	19823
#	32321
#	45165
#	68505
#	83604
#	94363
#	112589
#	129244
#	142490
#	157175
#	170042
#
# Disc length: 2420 seconds
#
# Revision: 1
# Processed by: cddbd v1.5.2PL0 Copyright (c) Steve Scherf et al.
# Submitted via: audiograbber 1.83.01
#
DISCID=9109720c
DTITLE=ADELSON VIANA - ACORDEOM BRASILEIRO
DYEAR=1900
DGENRE=
TTITLE0=CHORO PR ADELSON
TTITLE1=DE LEVE
TTITLE2=DISFARÇADO
TTITLE3=ORÓS
TTITLE4=DA CIDADE AO SERTÃO
TTITLE5=PONTA PÉ
TTITLE6=SUBINDO ÀS NUVEM
TTITLE7=DO MESTRE AO DISCÍPULO
TTITLE8=CAROS AMIGOS
TTITLE9=QUIXADÁ
TTITLE10=INFLUÊNCIA DO CHORO
TTITLE11=ESCALADA
EXTD=
EXTT0=
EXTT1=
EXTT2=
EXTT3=
EXTT4=
EXTT5=
EXTT6=
EXTT7=
EXTT8=
EXTT9=
EXTT10=
EXTT11=
PLAYORDER=
